<mxfile host="app.diagrams.net" modified="2024-01-23T09:02:08.195Z" agent="Mozilla/5.0 (Macintosh; Intel Mac OS X 10_15_7) AppleWebKit/537.36 (KHTML, like Gecko) Chrome/120.0.0.0 Safari/537.36" etag="Zf2MN1xYhOXSXKXYdIXM" version="22.1.21" type="github">
  <diagram name="第 1 页" id="LDPMrOHeN2osileLxLi3">
    <mxGraphModel dx="818" dy="739" grid="1" gridSize="10" guides="1" tooltips="1" connect="1" arrows="1" fold="1" page="1" pageScale="1" pageWidth="827" pageHeight="1169" math="0" shadow="0">
      <root>
        <mxCell id="0" />
        <mxCell id="1" parent="0" />
        <mxCell id="EiZV_TaUiUASUvjuTPQM-1" value="" style="edgeStyle=orthogonalEdgeStyle;rounded=0;orthogonalLoop=1;jettySize=auto;html=1;" edge="1" parent="1" source="EiZV_TaUiUASUvjuTPQM-2" target="EiZV_TaUiUASUvjuTPQM-6">
          <mxGeometry relative="1" as="geometry" />
        </mxCell>
        <mxCell id="EiZV_TaUiUASUvjuTPQM-2" value="ExploreRecommendFragment" style="swimlane;fontStyle=1;align=center;verticalAlign=top;childLayout=stackLayout;horizontal=1;startSize=26;horizontalStack=0;resizeParent=1;resizeParentMax=0;resizeLast=0;collapsible=1;marginBottom=0;whiteSpace=wrap;html=1;" vertex="1" parent="1">
          <mxGeometry x="20" y="110" width="190" height="60" as="geometry" />
        </mxCell>
        <mxCell id="EiZV_TaUiUASUvjuTPQM-3" value="" style="line;strokeWidth=1;fillColor=none;align=left;verticalAlign=middle;spacingTop=-1;spacingLeft=3;spacingRight=3;rotatable=0;labelPosition=right;points=[];portConstraint=eastwest;strokeColor=inherit;" vertex="1" parent="EiZV_TaUiUASUvjuTPQM-2">
          <mxGeometry y="26" width="190" height="8" as="geometry" />
        </mxCell>
        <mxCell id="EiZV_TaUiUASUvjuTPQM-4" value="# onCreateView()" style="text;strokeColor=none;fillColor=none;align=left;verticalAlign=top;spacingLeft=4;spacingRight=4;overflow=hidden;rotatable=0;points=[[0,0.5],[1,0.5]];portConstraint=eastwest;whiteSpace=wrap;html=1;" vertex="1" parent="EiZV_TaUiUASUvjuTPQM-2">
          <mxGeometry y="34" width="190" height="26" as="geometry" />
        </mxCell>
        <mxCell id="EiZV_TaUiUASUvjuTPQM-5" value="" style="edgeStyle=orthogonalEdgeStyle;rounded=0;orthogonalLoop=1;jettySize=auto;html=1;" edge="1" parent="1" source="EiZV_TaUiUASUvjuTPQM-6" target="EiZV_TaUiUASUvjuTPQM-9">
          <mxGeometry relative="1" as="geometry" />
        </mxCell>
        <mxCell id="EiZV_TaUiUASUvjuTPQM-6" value="BaseExploreFragment" style="swimlane;fontStyle=1;align=center;verticalAlign=top;childLayout=stackLayout;horizontal=1;startSize=26;horizontalStack=0;resizeParent=1;resizeParentMax=0;resizeLast=0;collapsible=1;marginBottom=0;whiteSpace=wrap;html=1;" vertex="1" parent="1">
          <mxGeometry x="290" y="110" width="190" height="60" as="geometry" />
        </mxCell>
        <mxCell id="EiZV_TaUiUASUvjuTPQM-7" value="" style="line;strokeWidth=1;fillColor=none;align=left;verticalAlign=middle;spacingTop=-1;spacingLeft=3;spacingRight=3;rotatable=0;labelPosition=right;points=[];portConstraint=eastwest;strokeColor=inherit;" vertex="1" parent="EiZV_TaUiUASUvjuTPQM-6">
          <mxGeometry y="26" width="190" height="8" as="geometry" />
        </mxCell>
        <mxCell id="EiZV_TaUiUASUvjuTPQM-8" value="# onCreateView()" style="text;strokeColor=none;fillColor=none;align=left;verticalAlign=top;spacingLeft=4;spacingRight=4;overflow=hidden;rotatable=0;points=[[0,0.5],[1,0.5]];portConstraint=eastwest;whiteSpace=wrap;html=1;" vertex="1" parent="EiZV_TaUiUASUvjuTPQM-6">
          <mxGeometry y="34" width="190" height="26" as="geometry" />
        </mxCell>
        <mxCell id="EiZV_TaUiUASUvjuTPQM-16" value="" style="edgeStyle=orthogonalEdgeStyle;rounded=0;orthogonalLoop=1;jettySize=auto;html=1;" edge="1" parent="1" source="EiZV_TaUiUASUvjuTPQM-9" target="EiZV_TaUiUASUvjuTPQM-13">
          <mxGeometry relative="1" as="geometry" />
        </mxCell>
        <mxCell id="EiZV_TaUiUASUvjuTPQM-9" value="ExploreView" style="swimlane;fontStyle=1;align=center;verticalAlign=top;childLayout=stackLayout;horizontal=1;startSize=26;horizontalStack=0;resizeParent=1;resizeParentMax=0;resizeLast=0;collapsible=1;marginBottom=0;whiteSpace=wrap;html=1;" vertex="1" parent="1">
          <mxGeometry x="540" y="105" width="190" height="70" as="geometry" />
        </mxCell>
        <mxCell id="EiZV_TaUiUASUvjuTPQM-10" value="" style="line;strokeWidth=1;fillColor=none;align=left;verticalAlign=middle;spacingTop=-1;spacingLeft=3;spacingRight=3;rotatable=0;labelPosition=right;points=[];portConstraint=eastwest;strokeColor=inherit;" vertex="1" parent="EiZV_TaUiUASUvjuTPQM-9">
          <mxGeometry y="26" width="190" height="8" as="geometry" />
        </mxCell>
        <mxCell id="EiZV_TaUiUASUvjuTPQM-11" value="# bindRenderNote()" style="text;strokeColor=none;fillColor=none;align=left;verticalAlign=top;spacingLeft=4;spacingRight=4;overflow=hidden;rotatable=0;points=[[0,0.5],[1,0.5]];portConstraint=eastwest;whiteSpace=wrap;html=1;" vertex="1" parent="EiZV_TaUiUASUvjuTPQM-9">
          <mxGeometry y="34" width="190" height="36" as="geometry" />
        </mxCell>
        <mxCell id="EiZV_TaUiUASUvjuTPQM-13" value="ExplorePresenter" style="swimlane;fontStyle=1;align=center;verticalAlign=top;childLayout=stackLayout;horizontal=1;startSize=26;horizontalStack=0;resizeParent=1;resizeParentMax=0;resizeLast=0;collapsible=1;marginBottom=0;whiteSpace=wrap;html=1;" vertex="1" parent="1">
          <mxGeometry x="500" y="255" width="270" height="180" as="geometry" />
        </mxCell>
        <mxCell id="EiZV_TaUiUASUvjuTPQM-14" value="" style="line;strokeWidth=1;fillColor=none;align=left;verticalAlign=middle;spacingTop=-1;spacingLeft=3;spacingRight=3;rotatable=0;labelPosition=right;points=[];portConstraint=eastwest;strokeColor=inherit;" vertex="1" parent="EiZV_TaUiUASUvjuTPQM-13">
          <mxGeometry y="26" width="270" height="8" as="geometry" />
        </mxCell>
        <mxCell id="EiZV_TaUiUASUvjuTPQM-15" value="# loadAheadRequestData()&lt;br&gt;---------------&amp;gt;&lt;br&gt;- loadAheadRequestdataImmediatelyOrWait()&lt;br&gt;--------------&amp;gt;&lt;br&gt;-&amp;nbsp;showAheadListDataImmediately()&lt;br&gt;-------------&amp;gt;&lt;br&gt;-&amp;nbsp;returnHomeAdsExploreNotes()&lt;br&gt;-------------&amp;gt;&lt;br&gt;-&amp;nbsp;appendResponseWithCache()" style="text;strokeColor=none;fillColor=none;align=left;verticalAlign=top;spacingLeft=4;spacingRight=4;overflow=hidden;rotatable=0;points=[[0,0.5],[1,0.5]];portConstraint=eastwest;whiteSpace=wrap;html=1;" vertex="1" parent="EiZV_TaUiUASUvjuTPQM-13">
          <mxGeometry y="34" width="270" height="146" as="geometry" />
        </mxCell>
        <mxCell id="EiZV_TaUiUASUvjuTPQM-21" value="CostTrackerHelper" style="swimlane;fontStyle=1;align=center;verticalAlign=top;childLayout=stackLayout;horizontal=1;startSize=26;horizontalStack=0;resizeParent=1;resizeParentMax=0;resizeLast=0;collapsible=1;marginBottom=0;whiteSpace=wrap;html=1;" vertex="1" parent="1">
          <mxGeometry x="60" y="315" width="270" height="60" as="geometry" />
        </mxCell>
        <mxCell id="EiZV_TaUiUASUvjuTPQM-22" value="" style="line;strokeWidth=1;fillColor=none;align=left;verticalAlign=middle;spacingTop=-1;spacingLeft=3;spacingRight=3;rotatable=0;labelPosition=right;points=[];portConstraint=eastwest;strokeColor=inherit;" vertex="1" parent="EiZV_TaUiUASUvjuTPQM-21">
          <mxGeometry y="26" width="270" height="8" as="geometry" />
        </mxCell>
        <mxCell id="EiZV_TaUiUASUvjuTPQM-23" value="# setStageById(..,POINT_8)" style="text;strokeColor=none;fillColor=none;align=left;verticalAlign=top;spacingLeft=4;spacingRight=4;overflow=hidden;rotatable=0;points=[[0,0.5],[1,0.5]];portConstraint=eastwest;whiteSpace=wrap;html=1;" vertex="1" parent="EiZV_TaUiUASUvjuTPQM-21">
          <mxGeometry y="34" width="270" height="26" as="geometry" />
        </mxCell>
        <mxCell id="EiZV_TaUiUASUvjuTPQM-25" value="name" style="endArrow=block;endFill=1;html=1;edgeStyle=orthogonalEdgeStyle;align=left;verticalAlign=top;rounded=0;exitX=-0.015;exitY=0.442;exitDx=0;exitDy=0;exitPerimeter=0;" edge="1" parent="1" source="EiZV_TaUiUASUvjuTPQM-15">
          <mxGeometry x="-0.75" relative="1" as="geometry">
            <mxPoint x="490" y="390" as="sourcePoint" />
            <mxPoint x="330" y="354" as="targetPoint" />
            <Array as="points">
              <mxPoint x="330" y="354" />
            </Array>
            <mxPoint as="offset" />
          </mxGeometry>
        </mxCell>
        <mxCell id="EiZV_TaUiUASUvjuTPQM-26" value="1" style="edgeLabel;resizable=0;html=1;align=left;verticalAlign=bottom;" connectable="0" vertex="1" parent="EiZV_TaUiUASUvjuTPQM-25">
          <mxGeometry x="-1" relative="1" as="geometry" />
        </mxCell>
      </root>
    </mxGraphModel>
  </diagram>
</mxfile>
